<mxfile host="app.diagrams.net" agent="Mozilla/5.0 (Windows NT 10.0; Win64; x64) AppleWebKit/537.36 (KHTML, like Gecko) Chrome/127.0.0.0 Safari/537.36 Edg/127.0.0.0" version="24.7.7">
  <diagram name="第 1 页" id="SgCw8W_gweSlGbslNGm5">
    <mxGraphModel dx="1489" dy="947" grid="1" gridSize="10" guides="1" tooltips="1" connect="1" arrows="1" fold="1" page="1" pageScale="1" pageWidth="827" pageHeight="1169" math="0" shadow="0">
      <root>
        <mxCell id="0" />
        <mxCell id="1" parent="0" />
        <mxCell id="7duqOvCoS5RMVd35uORw-1" value="开始" style="rounded=1;whiteSpace=wrap;html=1;" vertex="1" parent="1">
          <mxGeometry x="354" y="30" width="56" height="20" as="geometry" />
        </mxCell>
        <mxCell id="7duqOvCoS5RMVd35uORw-2" value="" style="rounded=1;whiteSpace=wrap;html=1;" vertex="1" parent="1">
          <mxGeometry x="827" y="170" width="70" height="20" as="geometry" />
        </mxCell>
        <mxCell id="7duqOvCoS5RMVd35uORw-3" value="" style="rounded=1;whiteSpace=wrap;html=1;" vertex="1" parent="1">
          <mxGeometry x="837" y="180" width="70" height="20" as="geometry" />
        </mxCell>
        <mxCell id="7duqOvCoS5RMVd35uORw-4" value="" style="rounded=1;whiteSpace=wrap;html=1;" vertex="1" parent="1">
          <mxGeometry x="847" y="190" width="70" height="20" as="geometry" />
        </mxCell>
        <mxCell id="7duqOvCoS5RMVd35uORw-5" value="" style="rounded=1;whiteSpace=wrap;html=1;" vertex="1" parent="1">
          <mxGeometry x="857" y="200" width="70" height="20" as="geometry" />
        </mxCell>
        <mxCell id="7duqOvCoS5RMVd35uORw-6" value="" style="rounded=1;whiteSpace=wrap;html=1;" vertex="1" parent="1">
          <mxGeometry x="867" y="210" width="70" height="20" as="geometry" />
        </mxCell>
        <mxCell id="7duqOvCoS5RMVd35uORw-7" value="" style="rounded=1;whiteSpace=wrap;html=1;" vertex="1" parent="1">
          <mxGeometry x="60" y="90" width="70" height="20" as="geometry" />
        </mxCell>
        <mxCell id="7duqOvCoS5RMVd35uORw-8" value="结束" style="rounded=1;whiteSpace=wrap;html=1;" vertex="1" parent="1">
          <mxGeometry x="354" y="430" width="70" height="20" as="geometry" />
        </mxCell>
      </root>
    </mxGraphModel>
  </diagram>
</mxfile>
